<svg id="svg" version="1.1" xmlns="http://www.w3.org/2000/svg" xmlns:xlink="http://www.w3.org/1999/xlink" width="400" height="261.37566137566137" viewBox="0, 0, 400,261.37566137566137"><g id="svgg"><path id="path0" d="M264.021 4.218 C 216.128 8.628,176.335 40.374,160.881 86.501 C 159.116 91.769,157.672 97.010,157.672 98.148 C 157.672 99.979,156.667 100.295,148.942 100.897 C 127.668 102.556,105.174 112.049,78.803 130.497 C 51.691 149.465,29.429 157.756,9.149 156.438 C 4.971 156.167,3.704 156.436,3.704 157.596 C 3.704 163.088,30.666 159.844,50.082 152.015 C 59.435 148.243,65.971 144.288,85.185 130.773 C 106.357 115.882,128.781 106.631,147.832 104.930 L 156.511 104.155 155.983 108.956 C 154.479 122.634,154.453 122.728,152.052 123.172 C 130.419 127.177,120.727 131.502,95.627 148.352 C 64.204 169.447,37.202 179.894,14.099 179.894 C 10.738 179.894,9.524 180.315,9.524 181.481 C 9.524 185.034,34.435 182.188,50.794 176.766 C 63.274 172.629,79.130 164.145,97.566 151.740 C 123.275 134.440,135.935 128.691,150.265 127.807 L 155.026 127.513 155.650 134.392 C 155.993 138.175,156.619 143.226,157.041 145.616 L 157.807 149.963 151.126 151.242 C 132.424 154.824,124.749 158.250,102.049 173.150 C 69.776 194.332,49.196 202.772,26.455 204.152 C 14.496 204.878,11.620 207.666,22.213 208.265 C 43.249 209.455,71.800 198.101,106.906 174.584 C 125.092 162.401,135.468 157.956,153.277 154.719 L 158.658 153.741 160.956 160.733 C 162.220 164.579,164.151 169.511,165.247 171.693 C 167.199 175.582,167.199 175.661,165.237 175.661 C 154.395 175.661,132.241 184.761,110.108 198.305 C 78.066 217.912,59.873 224.898,33.040 227.899 C 21.102 229.234,18.753 231.033,28.283 231.542 C 49.143 232.656,80.803 221.278,113.037 201.084 C 133.595 188.206,149.332 181.640,162.857 180.300 L 168.783 179.712 175.291 189.592 C 181.267 198.662,181.613 199.496,179.524 199.782 C 155.427 203.082,132.426 211.469,111.431 224.611 C 80.260 244.123,58.930 252.860,42.328 252.914 C 33.490 252.943,28.571 253.995,28.571 255.855 C 28.571 258.401,50.072 256.828,62.042 253.407 C 73.534 250.121,92.746 240.816,108.995 230.664 C 132.499 215.979,148.630 209.460,172.187 205.127 L 185.114 202.748 192.822 210.181 C 256.169 271.268,364.048 241.705,388.742 156.489 C 412.059 76.026,346.986 -3.422,264.021 4.218 M294.434 8.976 C 375.942 23.190,416.483 116.979,371.170 186.497 C 331.957 246.655,247.910 256.977,195.238 208.103 C 186.296 199.806,191.380 199.151,201.178 207.339 C 289.022 280.739,417.049 191.031,377.827 83.560 C 341.603 -15.694,192.633 -9.517,166.456 92.325 C 164.748 98.968,162.858 101.835,161.249 100.226 C 160.323 99.300,164.082 86.898,168.264 77.078 C 188.983 28.423,241.964 -0.174,294.434 8.976 M294.437 24.967 C 342.214 34.712,376.115 79.263,373.215 128.493 C 369.200 196.655,300.024 240.380,235.979 215.238 C 229.771 212.801,213.158 203.329,213.959 202.683 C 214.139 202.538,220.952 202.861,229.101 203.400 C 266.628 205.883,286.213 200.325,316.931 178.473 C 332.433 167.446,341.367 162.869,354.497 159.230 C 367.969 155.497,367.417 155.711,366.671 154.505 C 363.248 148.965,336.947 159.579,314.286 175.646 C 301.249 184.888,288.213 191.742,274.603 196.507 L 266.138 199.471 238.317 199.266 C 206.049 199.029,207.493 199.437,197.881 187.843 C 189.999 178.336,189.999 178.370,198.005 179.233 C 226.072 182.261,227.696 182.298,230.024 179.970 L 232.216 177.778 227.484 177.800 C 224.881 177.813,214.804 176.999,205.090 175.993 L 187.428 174.162 183.710 166.182 C 181.665 161.792,179.506 156.892,178.911 155.291 L 177.830 152.381 184.030 152.381 C 189.339 152.381,190.309 152.077,190.783 150.265 C 191.296 148.301,190.815 148.148,184.103 148.148 L 176.870 148.148 175.779 142.593 C 172.236 124.539,171.160 125.369,192.593 129.609 C 207.464 132.551,212.733 132.875,214.643 130.966 C 215.952 129.656,213.507 129.123,181.085 123.648 L 173.280 122.331 173.968 114.931 C 174.825 105.711,173.584 106.307,186.421 108.953 C 213.764 114.588,245.966 109.351,258.447 97.239 L 262.600 93.208 252.732 97.488 C 229.293 107.654,210.555 110.021,189.110 105.527 C 174.189 102.400,175.396 103.406,177.352 95.722 C 189.878 46.510,242.916 14.459,294.437 24.967 M333.731 54.492 C 324.771 56.435,318.273 59.761,321.461 60.773 C 322.723 61.173,326.267 60.757,329.338 59.847 C 332.408 58.937,336.587 57.807,338.624 57.336 C 340.661 56.865,342.328 55.835,342.328 55.047 C 342.328 52.996,341.022 52.912,333.731 54.492 M306.349 62.636 C 300.287 65.824,281.481 80.497,281.481 82.040 C 281.481 85.003,284.634 86.183,287.705 84.370 L 290.614 82.651 295.968 89.738 C 298.912 93.636,304.551 101.001,308.498 106.104 L 315.676 115.383 313.364 117.845 C 310.822 120.550,311.254 123.810,314.155 123.810 C 317.002 123.810,341.901 103.605,344.149 99.471 C 349.568 89.502,341.758 76.124,331.335 77.522 C 327.479 78.039,327.444 78.010,327.840 74.612 C 329.092 63.894,316.889 57.095,306.349 62.636 M317.847 69.918 C 321.160 72.524,321.571 77.588,318.760 81.157 C 316.824 83.614,307.850 90.978,306.770 90.995 C 305.934 91.008,295.947 78.291,296.444 77.845 C 298.882 75.657,312.056 67.805,313.349 67.771 C 314.289 67.745,316.313 68.712,317.847 69.918 M341.799 79.236 C 341.799 79.746,342.533 80.774,343.431 81.519 C 345.293 83.064,347.832 81.421,346.618 79.457 C 345.771 78.087,341.799 77.904,341.799 79.236 M277.483 84.961 C 274.913 86.138,274.843 88.167,277.357 88.655 C 278.193 88.817,279.744 88.316,280.804 87.541 C 283.602 85.495,280.901 83.396,277.483 84.961 M335.554 86.884 C 340.884 92.590,339.092 97.474,328.662 105.670 L 321.797 111.065 318.230 106.591 C 316.268 104.130,313.626 100.742,312.358 99.063 L 310.052 96.010 316.137 91.252 C 326.920 82.823,330.920 81.923,335.554 86.884 M323.280 87.702 C 321.534 88.791,318.201 91.424,315.873 93.552 L 311.640 97.422 321.164 92.461 C 326.402 89.732,331.140 87.097,331.693 86.607 C 333.712 84.815,326.378 85.770,323.280 87.702 M268.849 90.427 C 266.893 91.871,264.876 92.794,264.366 92.479 C 263.857 92.164,263.570 92.406,263.730 93.018 C 263.890 93.629,262.631 95.255,260.933 96.631 C 258.837 98.329,258.064 99.704,258.528 100.913 C 259.576 103.643,262.286 104.165,264.590 102.081 C 267.075 99.831,268.404 100.729,273.882 108.356 L 277.216 112.998 271.224 117.522 C 267.928 120.010,264.623 122.046,263.880 122.046 C 263.136 122.046,262.739 122.389,262.998 122.808 C 265.048 126.124,259.747 126.055,256.930 122.728 C 249.562 114.027,249.485 113.827,252.491 111.214 C 255.350 108.727,255.399 107.149,252.670 105.427 C 250.606 104.125,237.106 113.735,237.063 116.537 C 237.020 119.371,239.889 121.161,241.857 119.529 C 243.934 117.805,244.079 117.954,258.514 136.640 C 268.848 150.017,269.527 151.184,267.913 152.798 C 265.932 154.779,267.356 158.291,270.058 158.087 C 272.212 157.923,284.656 148.064,284.656 146.521 C 284.656 143.503,281.695 142.611,278.311 144.610 C 276.136 145.895,274.792 146.167,274.294 145.422 C 273.882 144.807,271.294 141.410,268.544 137.873 L 263.542 131.443 271.895 124.981 C 282.016 117.151,280.830 117.087,287.491 125.819 L 292.971 133.003 290.252 135.722 C 283.013 142.961,290.481 143.532,299.281 136.412 C 306.853 130.285,307.601 127.403,301.546 127.682 C 296.296 127.924,272.029 97.092,274.921 93.853 C 276.180 92.444,276.344 91.485,275.541 90.213 C 273.862 87.551,272.698 87.588,268.849 90.427 M293.402 105.054 C 287.211 109.248,285.614 111.328,287.628 112.573 C 288.837 113.320,303.736 103.400,303.332 102.116 C 302.632 99.892,299.771 100.739,293.402 105.054 M162.445 104.514 C 164.150 105.754,162.068 122.751,160.212 122.751 C 158.596 122.751,158.187 115.068,159.409 107.672 C 160.078 103.629,160.551 103.136,162.445 104.514 M344.836 104.727 C 342.219 105.519,335.175 110.131,335.732 110.688 C 336.119 111.075,352.122 107.163,353.410 106.367 C 356.905 104.207,350.565 102.994,344.836 104.727 M306.002 122.577 C 303.944 124.160,303.782 124.674,305.016 125.698 C 306.948 127.301,311.302 124.480,310.424 122.193 C 309.660 120.201,309.019 120.256,306.002 122.577 M209.184 136.609 C 197.937 145.364,191.585 150.986,191.928 151.880 C 192.828 154.225,204.254 169.312,205.130 169.312 C 210.498 169.312,210.057 165.528,203.662 156.716 L 200.259 152.026 205.505 147.879 C 208.391 145.598,210.874 143.892,211.024 144.088 C 211.174 144.284,216.850 151.666,223.637 160.492 C 238.009 179.180,237.032 176.760,231.696 180.458 C 227.129 183.623,226.264 187.470,229.960 188.175 C 231.779 188.521,249.265 176.041,253.467 171.398 C 257.541 166.896,252.310 164.730,247.051 168.741 C 245.173 170.173,243.170 171.483,242.598 171.651 C 241.632 171.936,216.973 141.050,216.944 139.519 C 216.937 139.139,219.193 137.151,221.958 135.103 L 226.984 131.379 230.153 135.266 C 237.215 143.927,242.328 146.056,242.328 140.336 C 242.328 138.828,228.995 122.751,227.747 122.753 C 227.327 122.753,218.974 128.989,209.184 136.609 M161.937 126.720 C 162.023 128.789,164.071 143.720,164.624 146.296 C 165.135 148.682,164.879 149.206,163.202 149.206 C 160.370 149.206,157.009 129.058,159.436 126.631 C 160.384 125.683,161.897 125.736,161.937 126.720 M241.270 127.709 C 236.174 128.551,235.606 128.963,237.086 130.747 C 237.974 131.817,239.456 132.173,241.438 131.793 C 243.092 131.476,245.846 130.947,247.559 130.617 C 255.048 129.174,249.088 126.418,241.270 127.709 M347.767 130.220 C 336.332 133.056,323.493 139.297,311.528 147.836 C 290.497 162.846,277.368 169.407,257.102 175.034 C 252.714 176.252,247.714 178.298,245.991 179.581 L 242.857 181.914 247.090 181.286 C 266.478 178.409,291.331 167.358,311.111 152.818 C 325.911 141.939,339.660 135.470,353.439 132.903 C 358.130 132.029,360.317 131.136,360.317 130.096 C 360.317 127.868,357.123 127.900,347.767 130.220 M280.159 140.179 C 276.813 142.041,274.394 143.883,274.784 144.272 C 275.174 144.662,276.650 144.222,278.066 143.295 C 279.481 142.367,281.526 141.840,282.609 142.124 C 284.848 142.709,287.121 140.523,286.595 138.289 C 286.327 137.150,284.797 137.599,280.159 140.179 M256.614 149.415 C 252.540 150.528,244.529 151.721,238.812 152.068 C 228.496 152.692,228.433 152.713,230.487 154.766 C 234.086 158.366,266.138 153.407,266.138 149.251 C 266.138 147.140,264.865 147.162,256.614 149.415 M203.320 151.676 C 201.874 153.419,201.270 153.211,213.228 155.074 C 215.265 155.392,216.931 155.212,216.931 154.675 C 216.931 151.345,205.657 148.861,203.320 151.676 M169.934 162.963 C 171.974 167.910,173.885 172.490,174.183 173.141 C 174.480 173.792,173.767 174.575,172.598 174.881 C 170.396 175.457,164.947 164.684,163.316 156.526 C 161.927 149.581,166.085 153.625,169.934 162.963 M181.774 185.483 C 184.263 189.102,187.538 193.611,189.053 195.503 L 191.806 198.942 189.209 198.942 C 185.917 198.942,180.312 192.390,173.138 180.159 C 170.076 174.939,177.795 179.698,181.774 185.483 " stroke="none" fill="#000000" fill-rule="evenodd"></path></g></svg>